<?xml version="1.0" standalone="no"?>
<!DOCTYPE svg PUBLIC "-//W3C//DTD SVG 20010904//EN"
 "http://www.w3.org/TR/2001/REC-SVG-20010904/DTD/svg10.dtd">
<svg version="1.0" xmlns="http://www.w3.org/2000/svg"
 width="764.000000pt" height="1024.000000pt" viewBox="0 0 764.000000 1024.000000"
 preserveAspectRatio="xMidYMid meet">

<g transform="translate(0.000000,1024.000000) scale(0.100000,-0.100000)"
fill="#000000" stroke="none">
<path d="M1354 10226 c11 -9 29 -16 40 -16 17 1 18 2 6 9 -8 5 -26 12 -40 15
-24 7 -24 6 -6 -8z"/>
<path d="M2833 9968 c1 -152 5 -271 9 -264 4 7 3 132 -1 277 l-9 264 1 -277z"/>
<path d="M4827 10234 c-4 -4 -78 -10 -164 -15 l-158 -7 163 2 c108 2 167 7
174 14 7 7 8 12 2 12 -6 0 -14 -3 -17 -6z"/>
<path d="M6554 10232 c15 -24 176 -24 176 0 0 6 -7 7 -17 2 -24 -11 -89 -11
-132 0 -21 5 -31 5 -27 -2z"/>
<path d="M2266 10214 c-6 -16 -9 -240 -2 -233 4 5 16 249 11 249 -1 0 -6 -7
-9 -16z"/>
<path d="M1812 10200 c0 -14 2 -19 5 -12 2 6 2 18 0 25 -3 6 -5 1 -5 -13z"/>
<path d="M4157 10199 c-16 -9 -47 -69 -47 -91 0 -22 18 5 24 37 4 19 12 38 19
42 7 4 62 11 122 14 l110 6 -105 1 c-58 1 -113 -3 -123 -9z"/>
<path d="M4428 10203 c7 -3 16 -2 19 1 4 3 -2 6 -13 5 -11 0 -14 -3 -6 -6z"/>
<path d="M1480 10191 c8 -6 24 -11 35 -11 11 0 32 -6 46 -14 26 -13 88 -31 79
-23 -9 10 -105 44 -140 51 -26 5 -31 4 -20 -3z"/>
<path d="M2423 10140 c0 -36 2 -50 4 -32 2 17 2 47 0 65 -2 17 -4 3 -4 -33z"/>
<path d="M1710 10120 c8 -5 22 -10 30 -10 13 0 13 1 0 10 -8 5 -22 10 -30 10
-13 0 -13 -1 0 -10z"/>
<path d="M1773 10103 c9 -2 23 -2 30 0 6 3 -1 5 -18 5 -16 0 -22 -2 -12 -5z"/>
<path d="M4101 10067 c-1 -16 -5 -36 -10 -45 -4 -9 -11 -42 -14 -72 -4 -37 -3
-45 2 -25 21 77 33 144 28 156 -3 8 -6 1 -6 -14z"/>
<path d="M4480 10050 c-11 -7 -6 -10 20 -10 26 0 31 3 20 10 -8 5 -17 10 -20
10 -3 0 -12 -5 -20 -10z"/>
<path d="M4461 10015 c-5 -32 0 -406 6 -421 6 -17 199 -20 223 -4 10 7 -23 10
-102 10 l-118 0 -3 218 c-1 119 -4 208 -6 197z"/>
<path d="M4748 10005 c2 -14 6 -25 8 -25 2 0 4 11 4 25 0 14 -4 25 -9 25 -4 0
-6 -11 -3 -25z"/>
<path d="M2421 9968 c-1 -27 3 -48 7 -48 4 0 6 17 4 38 -5 58 -10 62 -11 10z"/>
<path d="M4963 9993 c-7 -2 -12 -14 -12 -26 1 -17 2 -18 6 -4 5 19 10 19 128
19 69 -1 74 1 40 8 -43 10 -142 12 -162 3z"/>
<path d="M5531 9991 c-9 -6 17 -7 66 -4 45 3 93 3 107 -1 25 -6 26 -9 27 -84
1 -42 4 -88 9 -102 4 -14 6 18 4 71 -2 53 -6 104 -10 113 -5 13 -22 16 -98 16
-50 0 -97 -4 -105 -9z"/>
<path d="M5988 9972 c-12 -13 -17 -53 -20 -167 -3 -85 -2 -128 3 -100 4 28 8
93 8 145 1 97 5 114 31 122 9 3 10 7 3 11 -6 4 -17 -1 -25 -11z"/>
<path d="M6169 9979 c-10 -6 -7 -9 14 -9 29 0 35 5 14 13 -8 3 -20 1 -28 -4z"/>
<path d="M5477 9973 c-9 -8 -9 -366 -1 -387 3 -9 16 -16 28 -15 21 0 21 0 -1
9 -23 9 -23 12 -23 199 0 142 3 191 13 194 6 3 7 6 1 6 -6 1 -14 -2 -17 -6z"/>
<path d="M6103 9973 c9 -2 23 -2 30 0 6 3 -1 5 -18 5 -16 0 -22 -2 -12 -5z"/>
<path d="M6194 9934 c-17 -18 -28 -34 -24 -34 7 0 43 38 54 58 12 20 3 13 -30
-24z"/>
<path d="M4750 9885 c0 -44 5 -87 10 -95 7 -10 10 10 10 65 0 44 -5 87 -10 95
-7 10 -10 -10 -10 -65z"/>
<path d="M5228 9948 c10 -12 12 -58 10 -182 -2 -91 0 -166 5 -166 4 0 7 76 7
169 0 149 -2 170 -17 182 -16 13 -17 12 -5 -3z"/>
<path d="M2269 9913 c19 -32 41 -57 46 -51 3 2 -4 13 -15 23 -11 10 -20 24
-20 32 0 7 -5 13 -10 13 -7 0 -7 -6 -1 -17z"/>
<path d="M4957 9770 c2 -85 8 -158 11 -162 7 -7 -4 244 -12 292 -2 14 -2 -45
1 -130z"/>
<path d="M6150 9881 c0 -8 12 -32 27 -54 24 -34 26 -42 15 -70 -10 -29 -10
-30 3 -13 19 25 19 46 -1 74 -8 12 -22 35 -30 50 -7 15 -14 20 -14 13z"/>
<path d="M2420 9810 c0 -54 -3 -70 -14 -70 -8 0 -17 9 -21 19 -3 11 -12 25
-21 32 -12 10 -13 9 -7 -7 12 -32 41 -57 57 -51 12 5 16 22 16 77 0 38 -2 70
-5 70 -3 0 -5 -31 -5 -70z"/>
<path d="M4061 9864 c0 -11 3 -14 6 -6 3 7 2 16 -1 19 -3 4 -6 -2 -5 -13z"/>
<path d="M4045 9820 c-4 -12 -5 -24 -2 -27 3 -2 8 5 12 17 4 12 5 24 2 27 -3
2 -8 -5 -12 -17z"/>
<path d="M4031 9764 c0 -11 3 -14 6 -6 3 7 2 16 -1 19 -3 4 -6 -2 -5 -13z"/>
<path d="M4757 9733 c-4 -3 -7 -29 -7 -58 0 -28 -5 -56 -12 -63 -8 -8 -8 -12
-1 -12 15 0 24 27 30 88 5 51 3 59 -10 45z"/>
<path d="M4012 9686 c-6 -22 -10 -41 -8 -43 7 -7 28 56 23 69 -2 7 -9 -5 -15
-26z"/>
<path d="M6087 9605 c-53 -74 -81 -83 -109 -37 -11 17 -18 21 -18 11 0 -34 56
-62 86 -41 6 4 25 28 42 54 18 25 39 54 48 62 8 9 11 16 7 16 -5 0 -30 -29
-56 -65z"/>
<path d="M3981 9574 c-14 -49 -7 -56 9 -9 7 20 10 39 7 42 -3 3 -10 -12 -16
-33z"/>
<path d="M5176 9589 c3 -5 11 -9 19 -9 8 0 16 4 19 9 3 5 -5 9 -19 9 -14 0
-22 -4 -19 -9z"/>
<path d="M5740 9582 c0 -7 -10 -13 -22 -13 -19 -1 -20 -2 -4 -6 20 -5 44 12
33 24 -4 3 -7 1 -7 -5z"/>
<path d="M5648 9563 c6 -2 18 -2 25 0 6 3 1 5 -13 5 -14 0 -19 -2 -12 -5z"/>
<path d="M2833 9480 c0 -25 2 -35 4 -22 2 12 2 32 0 45 -2 12 -4 2 -4 -23z"/>
<path d="M3955 9484 c-3 -16 -15 -69 -26 -117 -12 -49 -19 -91 -16 -93 6 -6
35 108 47 181 8 54 5 76 -5 29z"/>
<path d="M2834 9251 c-1 -67 1 -77 7 -46 10 52 11 123 2 128 -5 3 -8 -34 -9
-82z"/>
<path d="M4500 9265 c-9 -11 -12 -64 -11 -196 1 -99 5 -187 8 -195 8 -21 198
-19 233 2 14 9 16 12 5 7 -11 -4 -67 -8 -125 -8 l-105 0 -5 180 c-3 99 -2 188
3 197 6 15 25 18 120 21 l112 3 -111 2 c-89 2 -114 -1 -124 -13z"/>
<path d="M4973 9268 c-6 -8 -7 -51 -2 -108 l7 -95 -2 99 c-1 90 1 100 19 107
15 6 16 8 4 8 -9 1 -21 -5 -26 -11z"/>
<path d="M5038 9273 c12 -2 32 -2 45 0 12 2 2 4 -23 4 -25 0 -35 -2 -22 -4z"/>
<path d="M5133 9273 c9 -2 25 -2 35 0 9 3 1 5 -18 5 -19 0 -27 -2 -17 -5z"/>
<path d="M5228 9274 l29 -5 6 -133 c3 -74 3 -166 0 -206 -5 -60 -9 -73 -27
-80 -15 -6 -17 -9 -5 -9 9 -1 21 5 27 12 15 18 23 187 14 312 l-7 110 -32 3
c-30 2 -30 1 -5 -4z"/>
<path d="M5484 9267 c-2 -7 -3 -94 -2 -192 l3 -180 5 193 c3 105 4 192 2 192
-1 0 -5 -6 -8 -13z"/>
<path d="M4747 9259 c7 -7 15 -10 18 -7 3 3 -2 9 -12 12 -14 6 -15 5 -6 -5z"/>
<path d="M5730 9243 c0 -10 5 -25 10 -33 7 -11 10 -7 10 18 0 17 -4 32 -10 32
-5 0 -10 -8 -10 -17z"/>
<path d="M3886 9184 c-4 -9 -4 -19 -1 -22 2 -3 7 3 11 12 4 9 4 19 1 22 -2 3
-7 -3 -11 -12z"/>
<path d="M2797 9117 c-9 -11 -17 -27 -17 -34 0 -7 -11 -13 -24 -13 -33 0 -56
-10 -56 -23 0 -7 4 -7 12 1 7 7 27 12 45 12 24 0 33 4 33 17 0 9 7 25 17 35 9
10 14 20 12 22 -2 3 -12 -5 -22 -17z"/>
<path d="M3852 9091 c-7 -19 -12 -43 -11 -55 1 -12 7 -2 15 24 17 53 13 80 -4
31z"/>
<path d="M5734 9055 c-4 -11 -18 -33 -31 -50 -13 -16 -27 -34 -31 -40 -15 -19
-23 -35 -18 -35 11 0 97 123 93 133 -3 7 -8 3 -13 -8z"/>
<path d="M4980 8997 c4 -41 5 -41 8 -8 2 18 0 37 -5 42 -5 5 -6 -11 -3 -34z"/>
<path d="M3832 8970 c0 -14 2 -19 5 -12 2 6 2 18 0 25 -3 6 -5 1 -5 -13z"/>
<path d="M2693 8885 c0 -33 2 -45 4 -27 2 18 2 45 0 60 -2 15 -4 0 -4 -33z"/>
<path d="M3817 8913 c-12 -43 -17 -73 -13 -73 7 0 28 81 23 87 -3 2 -7 -4 -10
-14z"/>
<path d="M4969 8899 c-6 -45 12 -60 73 -57 l43 1 -50 6 c-50 6 -50 6 -55 46
l-6 40 -5 -36z"/>
<path d="M4755 8910 c-3 -5 -1 -10 4 -10 6 0 11 5 11 10 0 6 -2 10 -4 10 -3 0
-8 -4 -11 -10z"/>
<path d="M5630 8909 c0 -5 5 -7 10 -4 6 3 10 8 10 11 0 2 -4 4 -10 4 -5 0 -10
-5 -10 -11z"/>
<path d="M5490 8886 c0 -2 8 -10 18 -17 15 -13 16 -12 3 4 -13 16 -21 21 -21
13z"/>
<path d="M5610 8875 c-7 -8 -21 -15 -32 -15 -10 0 -17 -4 -13 -10 7 -12 52 8
59 26 7 18 1 18 -14 -1z"/>
<path d="M1115 8849 c-11 -16 -1 -19 13 -3 7 8 8 14 3 14 -5 0 -13 -5 -16 -11z"/>
<path d="M1158 8853 c6 -2 18 -2 25 0 6 3 1 5 -13 5 -14 0 -19 -2 -12 -5z"/>
<path d="M1240 8840 c8 -5 28 -10 44 -10 39 0 30 6 -19 13 -27 4 -35 3 -25 -3z"/>
<path d="M3147 8832 c-15 -10 -30 -28 -33 -42 -3 -14 -7 -30 -9 -36 -2 -7 -23
-10 -57 -8 -39 3 -47 1 -28 -5 14 -5 42 -9 63 -10 36 -1 37 0 37 33 0 27 6 39
28 53 64 43 162 3 162 -67 0 -14 5 -32 10 -40 6 -10 8 -2 4 25 -9 55 -28 82
-70 100 -45 19 -71 18 -107 -3z"/>
<path d="M1388 8823 c7 -3 16 -2 19 1 4 3 -2 6 -13 5 -11 0 -14 -3 -6 -6z"/>
<path d="M3781 8794 c-7 -20 -11 -38 -8 -40 3 -3 10 11 17 31 16 47 8 55 -9 9z"/>
<path d="M1450 8810 c8 -5 26 -9 40 -9 l25 1 -25 8 c-14 4 -32 8 -40 9 -13 1
-13 0 0 -9z"/>
<path d="M1533 8793 c9 -2 23 -2 30 0 6 3 -1 5 -18 5 -16 0 -22 -2 -12 -5z"/>
<path d="M2680 8791 c0 -6 4 -13 10 -16 6 -3 7 1 4 9 -7 18 -14 21 -14 7z"/>
<path d="M1638 8783 c7 -3 16 -2 19 1 4 3 -2 6 -13 5 -11 0 -14 -3 -6 -6z"/>
<path d="M1709 8766 c14 -8 28 -22 32 -32 7 -17 8 -16 8 4 1 15 -7 26 -25 32
-36 14 -43 12 -15 -4z"/>
<path d="M2728 8758 c6 -6 18 -8 28 -6 14 3 12 5 -9 10 -19 3 -25 2 -19 -4z"/>
<path d="M2890 8746 c-6 -8 -24 -17 -38 -19 -25 -4 -24 -4 5 -6 18 0 36 5 40
13 4 7 15 16 23 19 13 5 12 6 -1 6 -9 1 -22 -5 -29 -13z"/>
<path d="M2790 8740 c8 -5 20 -10 25 -10 6 0 3 5 -5 10 -8 5 -19 10 -25 10 -5
0 -3 -5 5 -10z"/>
<path d="M3740 8670 c0 -22 3 -40 8 -40 4 0 7 18 7 40 1 22 -3 40 -7 40 -4 0
-8 -18 -8 -40z"/>
<path d="M3368 8693 c7 -3 16 -2 19 1 4 3 -2 6 -13 5 -11 0 -14 -3 -6 -6z"/>
<path d="M1754 8522 c0 -91 3 -157 7 -146 10 25 11 285 1 300 -4 7 -7 -63 -8
-154z"/>
<path d="M3440 8670 c33 -26 50 -26 20 0 -13 11 -28 20 -34 20 -6 0 0 -9 14
-20z"/>
<path d="M3540 8630 c30 -10 56 -17 58 -16 5 6 -78 36 -96 35 -9 0 8 -9 38
-19z"/>
<path d="M1101 8614 c0 -11 3 -14 6 -6 3 7 2 16 -1 19 -3 4 -6 -2 -5 -13z"/>
<path d="M3791 8604 c11 -14 2 -15 -88 -12 -56 2 -99 0 -96 -4 5 -9 187 -11
196 -2 8 8 -3 34 -15 34 -6 0 -5 -7 3 -16z"/>
<path d="M4502 8568 c-17 -17 -17 -419 0 -436 7 -7 32 -11 58 -10 l45 1 -50 6
-50 6 -3 209 c-2 190 -1 210 15 222 10 7 13 14 8 14 -6 0 -16 -5 -23 -12z"/>
<path d="M4614 8568 c11 -6 41 -8 76 -5 38 4 61 2 69 -6 10 -9 11 -8 6 6 -6
14 -20 17 -89 17 -64 -1 -77 -3 -62 -12z"/>
<path d="M2685 8548 c-2 -7 -6 -45 -10 -84 -7 -80 3 -98 52 -92 l28 3 1 90 0
90 -3 -87 -4 -88 -28 0 c-37 0 -41 12 -32 104 7 72 5 92 -4 64z"/>
<path d="M5083 8553 c26 -2 68 -2 95 0 26 2 4 3 -48 3 -52 0 -74 -1 -47 -3z"/>
<path d="M5264 8515 c3 -27 1 -69 -3 -92 -6 -31 -5 -40 4 -36 15 5 18 92 5
143 -9 32 -9 31 -6 -15z"/>
<path d="M6097 8549 c7 -7 15 -10 18 -7 3 3 -2 9 -12 12 -14 6 -15 5 -6 -5z"/>
<path d="M6041 8524 c-35 -35 -22 -37 14 -3 17 16 26 29 20 28 -5 -1 -21 -12
-34 -25z"/>
<path d="M4993 8331 c-2 -158 0 -191 13 -201 13 -11 13 -10 5 12 -5 14 -7 87
-4 164 3 76 1 156 -4 177 -5 26 -9 -22 -10 -152z"/>
<path d="M3067 8504 c12 -3 24 -14 26 -25 4 -15 4 -14 3 3 -1 17 -8 23 -26 25
-21 1 -21 0 -3 -3z"/>
<path d="M5989 8473 c-13 -16 -12 -17 4 -4 9 7 17 15 17 17 0 8 -8 3 -21 -13z"/>
<path d="M3240 8400 c0 -44 3 -80 8 -80 4 0 7 36 7 80 0 44 -3 80 -7 80 -5 0
-8 -36 -8 -80z"/>
<path d="M3335 8471 c28 -6 30 -9 36 -66 l6 -60 1 52 c3 71 -4 83 -42 82 l-31
-1 30 -7z"/>
<path d="M4757 8473 c-11 -10 -8 -226 3 -243 7 -10 10 28 10 118 0 72 -1 132
-3 132 -2 0 -7 -3 -10 -7z"/>
<path d="M2312 8458 c-7 -7 -12 -38 -11 -72 0 -43 3 -55 9 -41 5 11 6 34 3 51
-2 18 0 41 6 53 13 24 11 27 -7 9z"/>
<path d="M2354 8452 c4 -7 32 -31 62 -53 l54 -40 -5 -52 c-3 -29 -2 -115 3
-192 l9 -140 -2 198 -2 198 -39 26 c-22 15 -41 29 -44 32 -14 16 -43 35 -36
23z"/>
<path d="M3482 8373 c2 -70 6 -88 18 -89 8 0 10 1 3 3 -15 5 -5 155 11 165 6
5 1 8 -12 8 -22 0 -23 -2 -20 -87z"/>
<path d="M5953 8445 c-3 -9 -3 -18 -1 -21 3 -3 8 4 11 16 6 23 -1 27 -10 5z"/>
<path d="M2953 8410 c0 -25 2 -35 4 -22 2 12 2 32 0 45 -2 12 -4 2 -4 -23z"/>
<path d="M3555 8440 c3 -5 15 -10 26 -10 11 0 17 5 14 10 -3 6 -15 10 -26 10
-11 0 -17 -4 -14 -10z"/>
<path d="M6124 8182 c0 -147 1 -238 2 -202 2 36 8 144 15 241 9 146 9 180 -2
202 -12 22 -14 -10 -15 -241z"/>
<path d="M3092 8420 c0 -14 2 -19 5 -12 2 6 2 18 0 25 -3 6 -5 1 -5 -13z"/>
<path d="M3740 8419 c0 -5 5 -7 10 -4 6 3 10 8 10 11 0 2 -4 4 -10 4 -5 0 -10
-5 -10 -11z"/>
<path d="M3793 8419 c9 -5 17 -18 18 -27 0 -11 2 -12 6 -4 6 15 -14 42 -31 42
-6 0 -3 -5 7 -11z"/>
<path d="M1096 8395 c-3 -9 -6 -24 -5 -33 0 -9 5 -4 10 12 9 32 6 48 -5 21z"/>
<path d="M3603 8355 c0 -27 2 -38 4 -22 2 15 2 37 0 50 -2 12 -4 0 -4 -28z"/>
<path d="M5954 8280 c0 -69 1 -97 3 -62 2 34 2 90 0 125 -2 34 -3 6 -3 -63z"/>
<path d="M3080 8361 c0 -5 -10 -12 -22 -14 -20 -4 -19 -4 5 -6 18 -1 27 4 27
14 0 8 -2 15 -5 15 -3 0 -5 -4 -5 -9z"/>
<path d="M5219 8343 c-41 -47 -71 -93 -60 -93 6 0 11 4 11 9 0 6 18 31 40 56
37 43 45 55 37 55 -2 0 -15 -12 -28 -27z"/>
<path d="M2968 8353 c6 -2 18 -2 25 0 6 3 1 5 -13 5 -14 0 -19 -2 -12 -5z"/>
<path d="M3356 8323 c-4 -4 -23 -6 -44 -5 -27 2 -33 0 -22 -8 22 -14 56 -12
70 5 12 15 10 21 -4 8z"/>
<path d="M2301 8199 c-1 -103 -4 -128 -16 -133 -17 -6 -20 -32 -5 -41 6 -3 7
1 4 10 -4 9 1 21 11 29 14 10 19 32 22 112 3 56 0 110 -5 124 -8 19 -11 -5
-11 -101z"/>
<path d="M3563 8283 c9 -2 23 -2 30 0 6 3 -1 5 -18 5 -16 0 -22 -2 -12 -5z"/>
<path d="M3800 8279 c0 -7 -12 -10 -30 -7 -16 3 -30 1 -30 -4 0 -4 16 -8 35
-8 24 0 35 5 35 15 0 8 -2 15 -5 15 -3 0 -5 -5 -5 -11z"/>
<path d="M1083 8230 c0 -30 2 -43 4 -27 2 15 2 39 0 55 -2 15 -4 2 -4 -28z"/>
<path d="M1742 8215 c0 -16 2 -22 5 -12 2 9 2 23 0 30 -3 6 -5 -1 -5 -18z"/>
<path d="M5120 8207 c-14 -18 -37 -44 -52 -59 -14 -16 -23 -28 -19 -28 7 0 26
20 85 88 11 12 17 24 15 26 -3 3 -16 -10 -29 -27z"/>
<path d="M5731 8206 l26 -15 9 -233 9 -233 3 170 c3 169 -3 281 -16 301 -4 6
-18 14 -32 18 l-25 7 26 -15z"/>
<path d="M5664 8175 c-10 -8 -14 -15 -8 -15 6 0 17 7 24 15 16 19 9 19 -16 0z"/>
<path d="M2956 8163 c-9 -32 -10 -143 0 -152 5 -5 30 -12 55 -15 37 -6 48 -3
63 13 10 11 16 29 13 43 -4 22 -4 21 -6 -3 -2 -39 -21 -50 -75 -43 l-46 7 0
73 0 74 60 0 60 0 2 -42 1 -43 4 40 c6 50 -13 65 -78 65 -37 0 -49 -4 -53 -17z"/>
<path d="M5625 8149 c-4 -6 -5 -12 -2 -15 2 -3 7 2 10 11 7 17 1 20 -8 4z"/>
<path d="M1058 8126 c-9 -12 -13 -28 -9 -34 5 -9 12 -5 20 12 18 33 10 49 -11
22z"/>
<path d="M3230 8139 c0 -5 5 -7 10 -4 6 3 10 8 10 11 0 2 -4 4 -10 4 -5 0 -10
-5 -10 -11z"/>
<path d="M1742 8110 c0 -19 2 -27 5 -17 2 9 2 25 0 35 -3 9 -5 1 -5 -18z"/>
<path d="M3370 8056 l-5 -70 -63 -15 c-55 -12 -65 -13 -73 0 -5 8 -6 22 -3 33
4 12 2 16 -5 12 -15 -10 -14 -41 3 -55 19 -16 111 -4 137 18 17 14 20 26 17
81 l-4 65 -4 -69z"/>
<path d="M3496 8098 c-21 -29 -22 -121 -1 -138 13 -11 13 -8 4 20 -14 37 -6
110 12 121 8 4 11 11 7 14 -3 4 -13 -4 -22 -17z"/>
<path d="M3726 8092 c-2 -4 13 -8 34 -7 21 0 36 3 33 8 -6 10 -61 9 -67 -1z"/>
<path d="M3603 8020 c0 -41 2 -58 4 -37 2 20 2 54 0 75 -2 20 -4 3 -4 -38z"/>
<path d="M1080 8070 c0 -5 5 -10 11 -10 5 0 7 5 4 10 -3 6 -8 10 -11 10 -2 0
-4 -4 -4 -10z"/>
<path d="M1756 8043 c9 -38 14 -42 14 -10 0 14 -5 29 -10 32 -7 4 -8 -3 -4
-22z"/>
<path d="M3802 8013 c-1 -38 -7 -63 -14 -66 -10 -4 -10 -6 0 -6 19 -1 24 20
19 80 l-3 54 -2 -62z"/>
<path d="M1244 8035 c14 -10 41 -14 85 -13 l66 2 -65 3 c-36 2 -69 8 -74 14
-6 5 -15 9 -20 9 -6 0 -2 -7 8 -15z"/>
<path d="M1475 8015 c21 -10 230 -22 254 -15 18 5 4 8 -44 8 -38 1 -104 3
-145 6 -41 3 -70 4 -65 1z"/>
<path d="M2301 8016 c13 -12 123 -65 127 -62 2 3 -24 18 -58 35 -56 28 -81 38
-69 27z"/>
<path d="M5624 7900 c0 -63 1 -89 3 -57 2 31 2 83 0 115 -2 31 -3 5 -3 -58z"/>
<path d="M3721 7973 c0 -18 1 -33 3 -33 2 0 13 -3 23 -6 17 -6 17 -6 1 7 -9 8
-19 25 -21 39 -4 21 -5 20 -6 -7z"/>
<path d="M5952 7980 c0 -14 2 -19 5 -12 2 6 2 18 0 25 -3 6 -5 1 -5 -13z"/>
<path d="M3538 7943 c12 -2 30 -2 40 0 9 3 -1 5 -23 4 -22 0 -30 -2 -17 -4z"/>
<path d="M5944 7770 c0 -102 2 -143 3 -92 2 50 2 134 0 185 -1 50 -3 9 -3 -93z"/>
<path d="M5407 7896 c-17 -13 -15 -14 15 -13 l33 2 3 -60 c2 -33 6 -63 10 -67
4 -4 5 24 2 63 -6 83 -24 104 -63 75z"/>
<path d="M5365 7860 c-3 -5 -1 -10 4 -10 6 0 11 5 11 10 0 6 -2 10 -4 10 -3 0
-8 -4 -11 -10z"/>
<path d="M3030 7843 c35 -2 68 -9 72 -16 9 -14 10 -122 2 -154 -8 -28 -23 -22
-84 36 -39 37 -49 54 -53 86 l-4 40 -1 -43 c-2 -35 3 -46 25 -65 14 -12 36
-33 47 -46 27 -29 57 -42 74 -29 16 14 17 169 0 186 -7 7 -37 11 -77 10 l-66
-2 65 -3z"/>
<path d="M5335 7810 c-4 -17 -5 -34 -2 -36 2 -3 7 10 11 27 3 18 4 34 2 36 -2
3 -7 -10 -11 -27z"/>
<path d="M3256 7805 c6 -15 70 -32 81 -21 4 3 -1 6 -11 6 -9 0 -30 7 -46 15
-26 13 -29 13 -24 0z"/>
<path d="M3216 7794 c-3 -9 -6 -60 -6 -114 0 -121 3 -130 44 -129 l31 1 -30 7
-30 6 -3 103 c-2 59 2 110 8 122 6 11 7 20 1 20 -5 0 -12 -7 -15 -16z"/>
<path d="M3370 7672 l5 -107 3 99 c1 55 -1 103 -5 107 -4 5 -6 -40 -3 -99z"/>
<path d="M3500 7773 c0 -5 22 -8 49 -8 27 0 47 3 44 7 -6 10 -93 10 -93 1z"/>
<path d="M5632 7664 c-2 -79 0 -114 8 -109 11 7 14 225 3 225 -5 0 -9 -52 -11
-116z"/>
<path d="M3604 7650 c0 -58 1 -81 3 -52 2 28 2 76 0 105 -2 28 -3 5 -3 -53z"/>
<path d="M5325 7705 c4 -11 8 -166 9 -345 1 -179 5 -333 10 -342 5 -11 19 -18
35 -17 l26 1 -25 7 c-23 6 -26 13 -33 81 -4 41 -6 191 -4 332 2 205 0 262 -11
280 -10 18 -12 19 -7 3z"/>
<path d="M6124 7565 c0 -82 2 -115 3 -72 2 43 2 110 0 150 -1 40 -3 5 -3 -78z"/>
<path d="M5152 7627 c-23 -24 -29 -71 -13 -96 6 -8 7 3 4 30 -6 49 11 73 57
82 l25 4 -26 2 c-15 0 -34 -8 -47 -22z"/>
<path d="M5227 7564 c6 -93 11 -103 12 -24 0 36 -3 71 -8 79 -5 8 -7 -13 -4
-55z"/>
<path d="M5766 7589 c-3 -17 -2 -38 4 -47 7 -13 9 -5 10 31 0 54 -5 60 -14 16z"/>
<path d="M5952 7560 c0 -14 2 -19 5 -12 2 6 2 18 0 25 -3 6 -5 1 -5 -13z"/>
<path d="M5466 7419 c-8 -85 -7 -191 3 -207 4 -7 8 50 7 128 0 77 -1 140 -2
140 0 0 -4 -28 -8 -61z"/>
<path d="M5239 7405 c-6 -40 -4 -53 7 -43 3 3 4 23 2 44 l-3 39 -6 -40z"/>
<path d="M5624 7330 c0 -52 1 -74 3 -47 2 26 2 68 0 95 -2 26 -3 4 -3 -48z"/>
<path d="M5767 7397 c-4 -10 -7 -37 -6 -60 l1 -42 9 45 c10 52 8 87 -4 57z"/>
<path d="M6120 7382 c0 -7 -6 -12 -14 -12 -7 0 -19 -7 -26 -15 -17 -21 0 -18
30 5 14 10 21 22 17 26 -4 4 -7 2 -7 -4z"/>
<path d="M5144 7135 c0 -126 2 -177 3 -112 2 65 2 168 0 230 -1 62 -3 9 -3
-118z"/>
<path d="M5950 7336 c0 -14 4 -27 8 -30 5 -3 6 8 4 25 -5 35 -12 38 -12 5z"/>
<path d="M5238 7198 c-2 -84 0 -160 4 -168 4 -8 8 60 8 153 0 92 -2 167 -4
167 -3 0 -6 -69 -8 -152z"/>
<path d="M6018 7324 c-16 -8 -28 -17 -28 -19 0 -6 52 16 65 27 15 13 -7 9 -37
-8z"/>
<path d="M5750 7214 c0 -11 -5 -25 -12 -32 -9 -9 -9 -12 0 -12 13 0 28 47 18
57 -3 4 -6 -3 -6 -13z"/>
<path d="M5610 7166 c0 -8 4 -17 9 -20 5 -4 7 3 4 14 -6 23 -13 26 -13 6z"/>
<path d="M3206 7155 c-3 -8 -12 -15 -19 -15 -8 0 -22 -9 -32 -20 -17 -19 -17
-23 10 -107 25 -78 27 -91 16 -128 -24 -80 -24 -85 4 -141 26 -51 27 -61 22
-142 -4 -62 -3 -77 3 -52 21 79 17 144 -15 209 -25 53 -27 64 -15 71 22 13 19
164 -4 205 -24 46 -20 67 22 95 34 24 43 25 112 20 75 -5 75 -5 50 -22 -13
-10 -33 -18 -43 -18 -29 0 -77 -54 -77 -87 1 -37 37 -80 75 -88 l30 -7 -30 17
c-39 21 -55 43 -55 75 0 32 26 70 47 70 20 0 101 51 108 67 3 10 -20 13 -99
13 -83 0 -105 -3 -110 -15z"/>
<path d="M5695 7160 c-3 -5 -2 -10 4 -10 5 0 13 5 16 10 3 6 2 10 -4 10 -5 0
-13 -4 -16 -10z"/>
<path d="M5467 7093 c-4 -3 -7 -16 -6 -27 0 -19 1 -19 10 3 10 24 8 36 -4 24z"/>
<path d="M5424 7025 c-10 -8 -14 -15 -8 -15 5 0 19 7 30 15 10 8 14 15 8 15
-5 0 -19 -7 -30 -15z"/>
<path d="M5232 6978 c-1 -14 -5 -35 -8 -45 -5 -14 -4 -15 5 -7 7 7 11 26 8 45
-3 28 -4 29 -5 7z"/>
<path d="M3375 6905 c22 -19 41 -25 75 -24 34 0 40 2 25 9 -11 5 -32 9 -46 9
-14 1 -34 8 -45 16 -33 25 -41 16 -9 -10z"/>
<path d="M5173 6903 c9 -2 25 -2 35 0 9 3 1 5 -18 5 -19 0 -27 -2 -17 -5z"/>
<path d="M3540 6869 c163 -29 200 -49 200 -106 0 -18 5 -33 10 -33 19 0 10 45
-15 83 -17 24 -34 37 -48 37 -12 0 -40 7 -62 15 -22 8 -60 14 -85 13 l-45 -1
45 -8z"/>
<path d="M4748 6833 c-16 -2 -28 -8 -28 -13 0 -21 24 -60 41 -65 9 -3 35 -19
58 -35 36 -27 41 -35 41 -69 0 -22 5 -43 10 -46 6 -4 8 -16 5 -28 -5 -17 -4
-19 4 -7 12 18 4 84 -16 122 -7 15 -28 35 -46 44 -41 21 -67 44 -67 59 0 18
67 17 86 -2 14 -15 24 -15 82 -5 66 11 96 5 114 -22 5 -6 8 -2 8 10 0 25 -30
33 -125 33 -36 0 -73 6 -90 15 -17 9 -34 15 -40 14 -5 0 -22 -3 -37 -5z"/>
<path d="M5026 6628 c-5 -66 -5 -130 0 -145 7 -23 9 -14 12 45 2 39 2 105 0
145 -3 68 -3 66 -12 -45z"/>
<path d="M3762 6706 c2 -11 23 -31 46 -45 64 -38 105 -97 98 -141 l-5 -35 11
34 c16 48 -20 114 -80 142 -23 12 -49 31 -58 42 -14 20 -15 20 -12 3z"/>
<path d="M5050 6674 c0 -32 4 -44 13 -42 15 6 21 32 13 64 -10 40 -26 27 -26
-22z"/>
<path d="M5959 6571 c-28 -29 -29 -32 -28 -123 2 -149 15 -167 17 -23 1 122 3
130 24 147 23 17 82 24 112 12 12 -5 16 -21 17 -63 0 -31 4 -65 9 -76 5 -12 6
10 3 55 -6 87 -17 100 -81 100 -35 0 -49 -6 -73 -29z"/>
<path d="M5690 6550 c0 -5 14 -10 30 -10 17 0 30 5 30 10 0 6 -13 10 -30 10
-16 0 -30 -4 -30 -10z"/>
<path d="M4858 6512 c-10 -21 -31 -45 -47 -55 -20 -11 -31 -28 -35 -52 -4 -19
-11 -35 -16 -35 -18 0 -11 -40 8 -41 9 -1 -1 -5 -23 -8 -22 -4 -50 -11 -61
-14 -17 -6 -23 -3 -27 13 -8 30 -42 25 -68 -11 -12 -17 -32 -42 -44 -55 -20
-22 -35 -64 -35 -100 0 -8 11 -14 28 -15 16 -1 20 -3 10 -6 -10 -2 -18 -11
-18 -18 0 -8 -9 -19 -19 -24 -24 -13 -84 -109 -78 -125 4 -9 55 -12 188 -12
101 0 158 2 127 4 l-57 3 -6 64 c-11 97 -14 95 120 95 l115 0 0 -56 c0 -30 5
-64 10 -75 10 -17 7 -19 -27 -20 -37 -1 -37 -2 -8 -8 40 -10 56 4 48 40 -5 24
-3 28 11 23 9 -3 16 -1 16 5 0 8 5 8 19 -1 26 -16 53 11 47 47 -4 22 -2 24 9
15 11 -9 16 -7 25 11 10 17 9 35 -1 83 -12 56 -14 58 -20 31 -5 -23 -7 -17 -8
28 0 31 -5 57 -11 57 -5 0 -10 7 -10 15 0 8 5 15 10 15 6 0 9 10 9 23 -1 16
-2 18 -6 5 -3 -14 -15 -18 -48 -18 -25 0 -46 5 -49 13 -5 10 -7 10 -12 0 -6
-13 -134 -19 -146 -8 -13 13 21 83 60 123 23 24 42 52 42 62 0 27 -2 25 -22
-18z m-210 -272 c2 -46 -1 -87 -5 -91 -5 -5 -32 -6 -61 -2 -50 6 -52 7 -52 37
0 34 84 150 104 143 7 -2 12 -36 14 -87z m220 60 l52 0 0 -74 0 -73 -52 -7
c-79 -9 -147 -7 -169 4 -16 9 -19 22 -19 80 l0 69 48 4 c26 2 56 2 67 1 11 -2
44 -4 73 -4z m152 -70 c0 -72 -2 -75 -45 -70 -29 3 -35 17 -35 83 l0 57 40 0
40 0 0 -70z m37 -112 c-3 -8 -6 -5 -6 6 -1 11 2 17 5 13 3 -3 4 -12 1 -19z
m-39 -35 c-2 -25 -8 -48 -15 -50 -9 -3 -53 74 -53 93 0 2 16 4 36 4 l35 0 -3
-47z m-370 11 c4 -25 -73 -134 -94 -134 -11 0 -14 19 -14 81 l0 80 53 -3 c44
-3 52 -6 55 -24z m-138 -115 c0 -14 -7 -19 -30 -19 l-29 0 17 29 c12 22 20 27
29 19 7 -6 13 -19 13 -29z m158 8 c3 -24 0 -27 -27 -27 -36 0 -37 3 -13 35 21
30 36 27 40 -8z"/>
<path d="M5655 6530 c-3 -6 1 -7 9 -4 18 7 21 14 7 14 -6 0 -13 -4 -16 -10z"/>
<path d="M5761 6303 c-1 -125 1 -225 3 -222 10 10 18 436 8 443 -7 4 -10 -67
-11 -221z"/>
<path d="M3184 6485 c-3 -14 -1 -31 5 -38 7 -9 11 -104 13 -270 l3 -257 35 2
35 1 -32 4 c-33 4 -44 25 -22 39 9 5 10 42 4 138 -5 72 -9 174 -10 226 0 52
-6 104 -12 116 -7 11 -9 30 -6 42 3 12 3 22 -1 22 -3 0 -8 -11 -12 -25z"/>
<path d="M3888 6470 c-7 -20 30 -87 53 -93 15 -4 16 -10 8 -43 -15 -66 -10
-127 11 -153 18 -21 26 -23 76 -19 52 4 56 3 65 -19 5 -13 9 -46 9 -72 0 -44
-4 -53 -41 -90 -50 -50 -76 -57 -143 -41 -40 9 -79 10 -173 1 -67 -6 -179 -11
-250 -12 -70 0 -150 -5 -178 -9 -39 -7 -32 -7 35 -4 47 3 216 6 377 8 255 2
293 5 308 19 9 9 24 22 33 29 44 33 70 126 43 154 -5 5 -11 20 -13 34 -3 26
-5 26 -71 13 -17 -3 -37 1 -53 12 -27 17 -27 18 -21 112 5 90 5 94 -17 102
-28 11 -43 30 -48 61 -2 17 -5 20 -10 10z"/>
<path d="M5642 6250 c-11 -157 -11 -164 -1 -148 5 10 8 55 6 100 -1 46 -4 67
-5 48z"/>
<path d="M5945 5975 l0 -150 43 -1 42 -1 -40 4 -39 4 -4 147 -3 147 1 -150z"/>
<path d="M6105 6108 c-3 -7 -6 -74 -7 -148 -3 -134 -3 -134 -28 -141 -22 -6
-23 -7 -4 -8 12 -1 26 5 32 12 9 10 22 297 14 297 -1 0 -5 -6 -7 -12z"/>
<path d="M5760 5945 c0 -10 -8 -24 -17 -31 -17 -13 -17 -13 -1 -14 18 0 37 45
24 57 -3 4 -6 -2 -6 -12z"/>
<path d="M5630 5933 c0 -7 33 -32 43 -33 16 0 5 16 -18 27 -14 6 -25 9 -25 6z"/>
<path d="M4345 5872 c-20 -18 -37 -43 -63 -96 -8 -16 -22 -36 -31 -45 -9 -9
-25 -28 -36 -42 -28 -35 -98 -81 -175 -114 -36 -16 -85 -43 -110 -61 -81 -57
-108 -67 -141 -54 -29 13 -36 37 -30 108 1 15 -2 21 -8 17 -6 -3 -11 -28 -11
-54 0 -46 15 -71 57 -95 15 -8 93 28 126 58 25 23 120 68 150 71 44 4 191 137
227 205 24 47 71 99 88 99 300 -1 442 2 445 8 3 5 -101 9 -232 11 -216 2 -238
1 -256 -16z"/>
<path d="M4863 5722 c-1 -92 -3 -195 -6 -229 -5 -62 -4 -63 22 -65 14 0 36 0
49 1 14 1 22 -4 22 -14 0 -9 4 -14 8 -11 5 3 9 -1 9 -8 0 -7 -7 -13 -16 -12
-9 1 -15 -5 -13 -11 1 -7 -2 -13 -8 -13 -5 0 -10 -7 -10 -15 0 -16 -15 -21
-23 -7 -2 4 -2 2 -1 -5 2 -7 -2 -15 -8 -19 -6 -4 -8 -24 -4 -50 l6 -44 -36 0
c-50 0 -96 -24 -144 -76 -33 -36 -40 -51 -40 -84 0 -52 13 -76 45 -84 33 -8
32 -17 -5 -41 -17 -11 -33 -28 -36 -37 -3 -10 -9 -18 -14 -18 -13 0 -23 -84
-16 -124 8 -41 58 -93 97 -101 38 -9 43 -20 26 -53 -65 -126 -69 -135 -64
-168 15 -90 99 -122 320 -124 36 0 56 -4 52 -10 -3 -5 0 -10 7 -10 9 0 9 -3
-2 -10 -8 -5 -30 -10 -48 -10 -39 0 -107 -33 -116 -55 -3 -9 -6 -38 -6 -65 0
-45 4 -52 55 -105 l55 -56 0 -74 c0 -41 4 -75 9 -75 5 0 12 -9 16 -20 3 -10
22 -29 41 -40 l34 -22 0 -88 0 -88 33 -15 c17 -8 41 -17 52 -19 17 -3 20 -11
19 -56 -1 -29 -7 -58 -13 -66 -20 -24 -25 -108 -7 -131 15 -19 16 -17 10 31
-5 40 -2 62 15 99 23 53 28 117 9 132 -7 6 -26 13 -43 17 -50 13 -55 22 -55
112 0 82 0 83 -32 105 -65 44 -72 58 -76 134 -3 56 -9 77 -30 105 -14 19 -30
37 -35 39 -27 11 -47 48 -47 85 1 65 38 95 118 97 45 1 104 21 110 37 2 7 -16
21 -40 32 -35 16 -65 20 -171 20 -131 0 -153 5 -194 43 -35 31 -29 75 22 177
l44 91 -27 10 c-77 31 -94 41 -112 71 -11 18 -20 47 -20 63 0 43 39 105 87
140 23 16 42 33 42 36 1 4 -13 9 -31 13 -42 8 -68 33 -67 65 1 42 11 58 63
101 43 35 54 40 100 40 29 0 57 5 64 12 7 7 12 33 12 59 0 40 4 51 31 73 20
17 42 26 66 26 l36 0 -39 38 c-22 20 -47 48 -57 62 -15 23 -17 24 -30 8 -8
-10 -22 -18 -31 -18 -19 0 -18 -11 -16 248 1 105 -2 192 -7 192 -4 0 -9 -75
-10 -168z"/>
<path d="M4934 5878 c-4 -7 -3 -8 4 -4 9 5 11 -23 10 -106 l-2 -113 -6 95 -6
95 -1 -90 c-1 -49 2 -115 7 -145 7 -52 9 -51 15 10 2 14 6 55 10 91 8 72 -1
179 -15 179 -5 0 -12 -5 -16 -12z"/>
<path d="M3445 5840 c-16 -4 -100 -8 -186 -9 -155 -1 -157 -1 -173 -26 -9 -13
-16 -33 -16 -44 0 -28 -31 -93 -53 -109 -26 -20 -14 -28 49 -36 45 -5 62 -3
83 11 107 71 136 74 230 25 45 -23 58 -37 87 -91 29 -55 34 -74 34 -132 0 -51
5 -77 20 -101 22 -36 26 -98 10 -129 -7 -13 -21 -19 -45 -19 -49 0 -79 17
-106 60 -22 35 -115 110 -137 110 -5 0 -27 14 -48 31 -54 43 -108 69 -143 69
-60 0 -99 26 -121 78 -10 24 1 59 24 74 6 5 7 8 1 8 -17 0 -32 -14 -53 -49
-22 -36 -20 -61 6 -61 9 0 27 -11 42 -25 16 -16 48 -29 91 -38 48 -10 88 -28
145 -65 136 -88 173 -116 180 -137 10 -28 52 -62 85 -69 34 -7 77 8 95 32 21
28 17 88 -10 131 -20 31 -25 52 -25 108 0 75 -10 111 -35 132 -9 7 -16 19 -16
25 0 34 -123 106 -180 106 -22 0 -48 -8 -63 -20 -14 -11 -32 -20 -40 -20 -7 0
-24 -9 -37 -20 -18 -16 -31 -18 -69 -13 -55 7 -63 12 -33 20 14 3 22 13 23 27
0 11 11 48 23 81 l22 60 184 6 c102 4 290 7 419 8 l233 1 -6 -37 c-7 -43 -74
-113 -135 -141 -20 -10 -37 -26 -39 -37 -3 -18 -2 -18 13 3 9 12 22 22 30 22
22 0 133 93 145 121 6 15 10 40 8 55 l-3 29 -240 1 c-132 1 -253 -2 -270 -6z"/>
<path d="M2896 5425 c9 -73 25 -145 33 -145 9 0 -9 133 -19 140 -4 3 -10 14
-13 25 -4 11 -4 2 -1 -20z"/>
<path d="M4899 5405 c-1 -3 -2 -10 -3 -15 0 -6 -8 -15 -16 -20 -12 -8 -11 -10
8 -10 12 0 22 4 22 9 0 5 3 16 6 25 3 9 1 16 -5 16 -6 0 -12 -2 -12 -5z"/>
<path d="M2945 5320 c3 -5 14 -10 23 -10 15 0 15 2 2 10 -20 13 -33 13 -25 0z"/>
<path d="M2931 5230 c0 -14 13 -49 29 -79 17 -30 30 -64 30 -75 0 -12 6 -32
13 -46 11 -21 11 -33 -1 -75 -8 -27 -18 -51 -23 -53 -5 -2 -9 -9 -9 -17 0 -7
-7 -18 -15 -25 -12 -10 -15 -43 -15 -177 0 -90 4 -172 9 -182 5 -9 13 -69 17
-132 3 -63 10 -119 15 -124 4 -6 10 -93 14 -195 4 -110 12 -205 20 -235 30
-105 46 -401 30 -537 l-8 -67 33 -27 c75 -64 164 -124 182 -124 11 0 36 -16
55 -35 41 -41 48 -44 32 -13 -17 32 -51 57 -76 58 -11 0 -39 15 -62 33 -22 17
-64 50 -92 72 l-51 40 7 95 c10 121 10 106 -3 304 -7 94 -17 175 -23 182 -6 8
-9 23 -6 34 3 11 1 18 -4 14 -5 -3 -9 44 -9 111 0 64 -4 125 -10 135 -8 15 -6
20 8 24 15 5 17 18 15 90 l-2 84 32 16 c18 8 28 16 23 16 -5 0 -3 6 3 14 9 11
8 15 -5 20 -15 6 -14 9 6 31 13 14 18 25 12 25 -15 0 -52 40 -52 57 0 10 10
12 38 8 31 -4 33 -4 13 5 -18 8 -22 15 -16 33 17 57 18 70 1 79 -9 5 -16 16
-16 23 0 8 -5 15 -11 15 -5 0 -7 5 -4 10 10 16 -35 47 -66 45 -33 -2 -34 2
-29 100 1 33 6 62 10 65 4 3 10 15 14 27 4 13 15 30 23 39 18 18 23 132 6 143
-6 3 -13 21 -16 40 -4 19 -13 41 -20 49 -6 8 -20 35 -29 61 -12 35 -17 40 -17
21z m96 -872 c-3 -8 -6 -5 -6 6 -1 11 2 17 5 13 3 -3 4 -12 1 -19z m-10 -60
c-3 -8 -6 -5 -6 6 -1 11 2 17 5 13 3 -3 4 -12 1 -19z m0 -50 c-3 -8 -6 -5 -6
6 -1 11 2 17 5 13 3 -3 4 -12 1 -19z"/>
<path d="M2960 4738 c0 -9 5 -20 11 -23 17 -11 20 0 4 21 -13 17 -14 17 -15 2z"/>
<path d="M1545 4445 c-44 -13 -96 -24 -115 -24 -20 -1 -40 -5 -45 -10 -24 -23
-167 -53 -288 -61 -70 -4 -133 -13 -141 -19 -16 -13 -22 -50 -38 -213 l-11
-117 34 -78 c18 -43 39 -83 45 -90 6 -6 16 -38 23 -70 6 -32 23 -90 37 -128
25 -66 27 -83 33 -310 4 -132 10 -246 14 -252 5 -7 13 -41 18 -75 6 -34 14
-67 18 -73 5 -5 12 -26 15 -45 27 -141 39 -175 75 -208 l36 -33 495 1 c272 0
767 -2 1100 -5 829 -7 2414 -6 2464 1 52 8 183 70 195 92 5 10 7 30 4 45 -4
22 2 35 37 70 36 35 80 89 134 162 18 24 -2 60 -46 80 -24 10 -54 27 -68 36
-14 9 -49 24 -79 34 -45 15 -60 16 -93 6 -37 -11 -43 -10 -77 13 -20 14 -42
26 -48 26 -6 0 -20 15 -32 33 -19 29 -21 30 -21 9 0 -56 147 -126 199 -93 15
10 92 -14 131 -42 13 -9 31 -17 40 -17 8 0 32 -13 53 -29 l37 -29 -32 -41
c-18 -23 -60 -71 -93 -108 -33 -36 -64 -76 -68 -89 -5 -13 -13 -22 -18 -18 -5
3 -9 -1 -9 -8 0 -9 -3 -9 -10 2 -9 13 -10 13 -10 0 -2 -49 -122 -71 -475 -85
-392 -15 -556 -18 -1025 -15 -283 1 -587 3 -675 3 -88 1 -270 0 -405 -3 -163
-3 -267 0 -310 8 -63 11 -460 25 -1054 37 -159 3 -293 8 -297 11 -5 3 -9 14
-9 24 0 10 -4 22 -10 25 -5 3 -10 23 -10 44 0 37 -14 92 -48 191 -11 32 -17
111 -22 280 -8 235 -17 306 -46 368 -8 17 -18 55 -21 82 -3 28 -10 53 -14 56
-5 3 -9 11 -9 19 0 8 -16 47 -35 88 -35 75 -54 180 -33 193 5 3 29 6 54 6 42
1 58 11 32 21 -10 3 -10 8 1 21 18 22 10 28 -39 31 -52 3 -64 14 -48 46 15 28
41 28 132 -2 40 -13 63 -16 70 -9 5 5 20 10 33 10 13 0 23 5 23 10 0 19 53 10
84 -13 17 -13 42 -23 56 -22 40 3 70 15 70 30 0 14 22 17 108 16 35 0 48 5 71
29 28 30 51 39 51 20 0 -11 88 -12 105 -1 17 10 29 7 42 -9 11 -13 12 -13 13
3 0 17 1 17 25 0 13 -10 25 -22 25 -26 0 -5 6 -14 13 -21 151 -159 227 -250
227 -275 0 -9 7 -29 15 -45 8 -15 15 -34 15 -42 0 -53 92 -214 211 -369 43
-56 89 -137 89 -158 0 -5 6 -23 14 -40 43 -96 58 -136 63 -175 3 -23 10 -45
14 -48 5 -3 9 -15 9 -27 0 -12 7 -35 15 -51 8 -15 15 -36 16 -45 0 -9 3 -11 5
-5 5 12 -4 52 -36 159 -12 39 -23 78 -25 88 -4 19 -66 170 -96 234 -11 23 -34
57 -51 75 -41 44 -150 204 -176 259 -12 24 -31 78 -43 119 -30 101 -64 153
-190 289 -38 41 -75 86 -83 100 -33 62 -69 128 -88 159 -19 31 -22 32 -81 31
-34 0 -98 -11 -142 -24z m-395 -185 c0 -5 -7 -10 -15 -10 -8 0 -15 5 -15 10 0
6 7 10 15 10 8 0 15 -4 15 -10z"/>
<path d="M3326 2915 c-12 -77 -66 -99 -176 -70 -20 5 -35 -1 -65 -25 l-40 -32
-102 7 c-95 6 -103 5 -109 -12 -25 -69 -98 -83 -176 -34 -47 30 -59 52 -74
134 -3 20 -11 40 -16 43 -6 4 -8 -1 -5 -12 3 -11 11 -44 18 -74 15 -66 20 -72
76 -110 75 -51 147 -40 182 28 12 22 15 23 111 16 97 -7 101 -6 140 20 40 26
84 34 94 17 13 -20 142 30 150 57 13 45 17 92 8 92 -5 0 -13 -20 -16 -45z"/>
</g>
</svg>
